<?xml version="1.0" standalone="no"?>
<!DOCTYPE svg PUBLIC "-//W3C//DTD SVG 20010904//EN"
 "http://www.w3.org/TR/2001/REC-SVG-20010904/DTD/svg10.dtd">
<svg version="1.0" xmlns="http://www.w3.org/2000/svg"
 width="512.000000pt" height="512.000000pt" viewBox="0 0 512.000000 512.000000"
 preserveAspectRatio="xMidYMid meet">
<metadata>
Created by potrace 1.11, written by Peter Selinger 2001-2013
</metadata>
<g transform="translate(0.000000,512.000000) scale(0.100000,-0.100000)"
fill="#000000" stroke="none">
<path d="M2645 4262 c-32 -7 -62 -32 -73 -60 -10 -23 -41 -174 -56 -267 -3
-16 -14 -74 -25 -127 -11 -53 -23 -118 -27 -145 -3 -26 -8 -51 -10 -54 -2 -3
-6 -21 -9 -40 -3 -19 -24 -126 -45 -239 -22 -113 -42 -214 -44 -225 -19 -98
-39 -204 -42 -225 -3 -14 -11 -60 -20 -103 -8 -42 -17 -87 -19 -100 -2 -12 -7
-35 -10 -52 -3 -16 -14 -77 -25 -135 -11 -58 -31 -159 -44 -225 -13 -66 -27
-138 -30 -160 -10 -62 -16 -76 -34 -73 -16 3 -72 173 -132 393 -60 226 -91
310 -122 337 -38 33 -96 32 -134 -2 -20 -20 -58 -115 -70 -177 -1 -7 -12 -45
-23 -85 -50 -174 -123 -434 -126 -448 -2 -13 -82 -16 -628 -20 -610 -5 -627
-6 -646 -25 -21 -22 -54 -95 -43 -95 4 0 13 -13 19 -29 6 -16 23 -37 38 -47
25 -16 71 -18 694 -17 625 0 670 1 698 18 32 19 43 47 129 355 14 52 28 96 29
98 2 2 10 -23 19 -55 76 -273 107 -363 134 -389 29 -26 28 -26 157 -26 152 0
153 0 185 30 23 20 33 41 40 82 6 30 12 66 15 80 3 14 16 86 30 160 15 74 40
203 56 285 17 83 32 159 33 170 3 18 18 103 21 115 1 3 5 25 9 50 5 25 10 52
11 60 37 191 78 404 84 435 8 37 9 38 11 10 1 -16 4 -39 5 -50 1 -11 5 -67 9
-125 8 -117 12 -168 21 -285 21 -275 24 -317 30 -415 3 -47 7 -110 10 -140 2
-30 7 -89 10 -130 8 -121 16 -232 20 -270 2 -19 6 -84 10 -145 3 -60 8 -121
10 -135 2 -14 7 -74 10 -135 4 -60 8 -126 10 -145 1 -19 6 -82 10 -140 4 -58
9 -116 10 -130 2 -14 3 -46 4 -72 1 -37 7 -55 29 -78 67 -76 171 -43 188 58 3
15 14 74 25 132 11 58 31 166 45 240 13 74 38 205 54 290 17 85 37 193 46 240
9 47 26 139 39 205 13 66 33 172 45 235 33 182 42 222 45 218 2 -2 6 -23 10
-48 3 -25 8 -52 10 -60 2 -8 6 -31 9 -50 3 -19 8 -46 11 -60 3 -14 8 -38 10
-55 3 -16 15 -82 26 -145 11 -63 23 -133 26 -155 7 -52 27 -91 59 -112 23 -15
85 -16 693 -16 629 0 669 1 699 18 28 17 37 34 48 90 5 28 -31 83 -62 95 -15
6 -261 10 -630 10 -332 0 -604 1 -604 3 0 1 -6 36 -14 77 -8 41 -17 95 -21
120 -3 25 -8 53 -11 62 -3 9 -13 65 -24 125 -48 274 -59 341 -65 383 -4 24 -8
47 -10 50 -2 3 -6 25 -10 50 -4 25 -8 47 -10 50 -2 3 -6 26 -9 50 -20 156 -35
197 -82 218 -42 20 -81 14 -114 -15 -31 -28 -39 -56 -83 -293 -3 -14 -8 -36
-11 -50 -3 -14 -8 -41 -10 -60 -3 -19 -23 -129 -45 -245 -22 -115 -43 -225
-46 -243 -3 -18 -12 -65 -21 -105 -8 -39 -17 -83 -19 -97 -2 -14 -10 -63 -19
-110 -9 -47 -19 -100 -22 -119 -3 -19 -10 -43 -14 -55 -7 -17 -9 -11 -10 24
-1 25 -3 56 -4 70 -2 14 -7 77 -11 140 -12 182 -12 190 -19 285 -4 50 -9 110
-11 135 -3 25 -7 86 -10 135 -3 50 -8 110 -10 135 -2 25 -7 90 -10 145 -4 55
-8 116 -10 135 -2 20 -6 78 -10 130 -6 103 -11 175 -20 285 -3 39 -8 102 -10
140 -3 39 -8 99 -10 135 -6 65 -7 93 -20 285 -4 55 -8 116 -10 136 -4 39 -27
93 -45 104 -20 12 -65 21 -85 17z"/>
</g>
</svg>
