<?xml version="1.0" encoding="UTF-8" standalone="no"?>
<!-- Generator: Adobe Illustrator 22.1.0, SVG Export Plug-In . SVG Version: 6.00 Build 0)  -->

<svg
   xmlns:dc="http://purl.org/dc/elements/1.1/"
   xmlns:cc="http://creativecommons.org/ns#"
   xmlns:rdf="http://www.w3.org/1999/02/22-rdf-syntax-ns#"
   xmlns:svg="http://www.w3.org/2000/svg"
   xmlns="http://www.w3.org/2000/svg"
   xmlns:sodipodi="http://sodipodi.sourceforge.net/DTD/sodipodi-0.dtd"
   xmlns:inkscape="http://www.inkscape.org/namespaces/inkscape"
   version="1.1"
   id="Warstwa_1"
   x="0px"
   y="0px"
   viewBox="0 0 413.00001 124.3"
   xml:space="preserve"
   sodipodi:docname="logo-i.svg"
   width="413"
   height="124.3"
   inkscape:version="0.92.3 (2405546, 2018-03-11)"><metadata
   id="metadata35"><rdf:RDF><cc:Work
       rdf:about=""><dc:format>image/svg+xml</dc:format><dc:type
         rdf:resource="http://purl.org/dc/dcmitype/StillImage" /><dc:title></dc:title></cc:Work></rdf:RDF></metadata><defs
   id="defs33" /><sodipodi:namedview
   pagecolor="#ffffff"
   bordercolor="#666666"
   borderopacity="1"
   objecttolerance="10"
   gridtolerance="10"
   guidetolerance="10"
   inkscape:pageopacity="0"
   inkscape:pageshadow="2"
   inkscape:window-width="2560"
   inkscape:window-height="1376"
   id="namedview31"
   showgrid="false"
   inkscape:showpageshadow="false"
   fit-margin-top="10"
   fit-margin-left="10"
   fit-margin-right="10"
   fit-margin-bottom="10"
   inkscape:zoom="3.1714398"
   inkscape:cx="132.54783"
   inkscape:cy="29.939109"
   inkscape:window-x="1920"
   inkscape:window-y="27"
   inkscape:window-maximized="1"
   inkscape:current-layer="g28"
   inkscape:pagecheckerboard="true" />
<style
   type="text/css"
   id="style2">
	.st0{fill:#299938;}
	.st1{fill:#3C3C3B;}
</style>
<g
   id="g28"
   transform="translate(-92,-320.3)">
	<path
   class="st0"
   d="m 238.9,411 h -34.3 c 0.2,2.8 1.2,5.5 3.1,7.9 1.4,1.7 3.1,3.1 5.1,4.1 2.1,1 4.2,1.5 6.6,1.5 2.9,0 5.5,-0.8 8,-2.4 2.4,-1.6 4.2,-3.7 5.3,-6.3 h 5.4 c -1.1,3.1 -2.9,5.9 -5.6,8.4 -3.6,3.4 -7.9,5 -12.9,5 -5.7,0 -10.6,-2 -14.5,-6.1 -3.7,-3.9 -5.5,-8.5 -5.5,-13.9 0,-5.6 1.9,-10.2 5.8,-14.1 3.8,-3.8 8.4,-5.7 13.9,-5.7 4.6,0 8.6,1.4 12.2,4.1 2.6,2 4.6,4.4 5.8,7.2 0.9,2.7 1.5,6.2 1.6,10.3 z m -5.1,-4.7 c -0.8,-3.2 -2.1,-5.8 -4.1,-7.8 -2.8,-2.9 -6.4,-4.4 -10.6,-4.4 -3.6,0 -6.7,1.1 -9.3,3.4 -2.6,2.3 -4.3,5.2 -5,8.9 h 29 z"
   id="path4"
   inkscape:connector-curvature="0"
   style="fill:#299938" />
	<polygon
   class="st0"
   points="251.1,377 251.1,428.2 245.9,428.2 245.9,377 "
   id="polygon6"
   style="fill:#299938" />
	<polygon
   class="st0"
   points="265,377 265,428.2 259.8,428.2 259.8,377 "
   id="polygon8"
   style="fill:#299938" />
	<path
   class="st0"
   d="m 273.7,428.2 v -37.9 h 5.1 v 4.9 c 3.2,-3.9 7.2,-5.8 12.2,-5.8 5.5,0 9.8,2 12.9,5.9 1.2,1.6 2.1,3.4 2.6,5.3 0.5,1.9 0.7,4.5 0.7,7.7 v 19.9 h -5.1 v -19.9 c 0,-2.5 -0.2,-4.5 -0.6,-6 -0.4,-1.5 -1,-2.9 -2,-4 -2.1,-2.7 -5.2,-4.1 -9.2,-4.1 -2,0 -3.8,0.4 -5.5,1.2 -1.7,0.8 -3,2 -4,3.4 -0.8,1.1 -1.3,2.3 -1.6,3.5 -0.3,1.3 -0.4,3 -0.4,5.1 v 20.8 z"
   id="path10"
   inkscape:connector-curvature="0"
   style="fill:#299938" />
	<path
   class="st0"
   d="m 354,411 h -34.3 c 0.2,2.8 1.2,5.5 3.1,7.9 1.4,1.7 3.1,3.1 5.1,4.1 2.1,1 4.2,1.5 6.6,1.5 2.9,0 5.5,-0.8 8,-2.4 2.4,-1.6 4.2,-3.7 5.3,-6.3 h 5.4 c -1.1,3.1 -2.9,5.9 -5.6,8.4 -3.6,3.4 -7.9,5 -12.9,5 -5.7,0 -10.6,-2 -14.5,-6.1 -3.7,-3.9 -5.5,-8.5 -5.5,-13.9 0,-5.6 1.9,-10.2 5.8,-14.1 3.8,-3.8 8.4,-5.7 13.9,-5.7 4.6,0 8.6,1.4 12.2,4.1 2.6,2 4.6,4.4 5.8,7.2 0.9,2.7 1.5,6.2 1.6,10.3 z m -5.1,-4.7 c -0.8,-3.2 -2.1,-5.8 -4.1,-7.8 -2.8,-2.9 -6.4,-4.4 -10.6,-4.4 -3.6,0 -6.7,1.1 -9.3,3.4 -2.6,2.3 -4.3,5.2 -5,8.9 h 29 z"
   id="path12"
   inkscape:connector-curvature="0"
   style="fill:#299938" />
	<path
   class="st0"
   d="m 357.9,417.1 h 5.1 c 0.1,2.1 0.7,3.7 1.6,4.9 1.3,1.7 3.1,2.5 5.5,2.5 1.8,0 3.3,-0.6 4.5,-1.8 1.3,-1.3 1.9,-2.9 1.9,-4.8 0,-2.2 -0.8,-3.8 -2.4,-4.9 -1,-0.6 -2.6,-1.4 -4.9,-2.4 -2.7,-1.1 -4.3,-1.8 -4.9,-2.1 -0.6,-0.3 -1.3,-0.8 -2.1,-1.5 -1.9,-1.8 -2.8,-4 -2.8,-6.8 0,-3.1 1,-5.6 3.1,-7.7 2,-2 4.6,-3 7.7,-3 3.1,0 5.6,0.9 7.6,2.8 2,1.9 3,4.4 3.1,7.4 h -5.2 c -0.1,-1.9 -0.7,-3.3 -1.7,-4.2 -1,-0.9 -2.3,-1.4 -3.9,-1.4 -1.5,0 -2.8,0.5 -3.8,1.5 -1.1,1.1 -1.7,2.4 -1.7,3.9 0,2.2 1.1,3.9 3.4,5 0.7,0.4 3.1,1.4 7.2,3.1 4.4,1.8 6.6,5 6.6,9.7 0,3.5 -1.1,6.4 -3.4,8.6 -2.1,2.1 -4.9,3.2 -8.2,3.2 -3.7,0 -6.6,-1.1 -8.8,-3.3 -2.3,-2.1 -3.4,-5.1 -3.5,-8.7 z"
   id="path14"
   inkscape:connector-curvature="0"
   style="fill:#299938" />
	<path
   class="st0"
   d="m 384.8,417.1 h 5.1 c 0.1,2.1 0.7,3.7 1.6,4.9 1.3,1.7 3.1,2.5 5.5,2.5 1.8,0 3.3,-0.6 4.5,-1.8 1.3,-1.3 1.9,-2.9 1.9,-4.8 0,-2.2 -0.8,-3.8 -2.4,-4.9 -1,-0.6 -2.6,-1.4 -4.9,-2.4 -2.7,-1.1 -4.3,-1.8 -4.9,-2.1 -0.6,-0.3 -1.3,-0.8 -2.1,-1.5 -1.9,-1.8 -2.8,-4 -2.8,-6.8 0,-3.1 1,-5.6 3.1,-7.7 2,-2 4.6,-3 7.7,-3 3.1,0 5.6,0.9 7.6,2.8 2,1.9 3,4.4 3.1,7.4 h -5.2 c -0.1,-1.9 -0.7,-3.3 -1.7,-4.2 -1,-0.9 -2.3,-1.4 -3.9,-1.4 -1.5,0 -2.8,0.5 -3.8,1.5 -1.1,1.1 -1.7,2.4 -1.7,3.9 0,2.2 1.1,3.9 3.4,5 0.7,0.4 3.1,1.4 7.2,3.1 4.4,1.8 6.6,5 6.6,9.7 0,3.5 -1.1,6.4 -3.4,8.6 -2.1,2.1 -4.9,3.2 -8.2,3.2 -3.7,0 -6.6,-1.1 -8.8,-3.3 -2.3,-2.1 -3.4,-5.1 -3.5,-8.7 z"
   id="path16"
   inkscape:connector-curvature="0"
   style="fill:#299938" />
	<polygon
   class="st0"
   points="431.4,412.1 412.6,412.1 412.6,407.7 431.4,407.7 "
   id="polygon18"
   style="fill:#299938" />
	<path
   class="st0"
   d="M 440.5,428.2 V 395 h -5.9 v -4.6 h 5.9 c 0.2,-3.1 0.5,-5.4 1.2,-6.8 0.6,-1.4 1.8,-2.8 3.5,-4 2.5,-1.8 5.8,-2.6 9.9,-2.5 v 4.6 c -3.8,0 -6.4,0.9 -7.9,2.5 -1,1.1 -1.5,3.2 -1.6,6.1 h 9.4 v 4.6 h -9.4 v 33.3 z"
   id="path20"
   inkscape:connector-curvature="0"
   style="fill:#299938" />
	<path
   class="st0"
   d="m 460.2,428.2 v -37.9 h 5.1 v 37.9 z m 0,-42.5 V 377 h 5.1 v 8.7 z"
   id="path22"
   inkscape:connector-curvature="0"
   style="fill:#299938" />
	<polygon
   class="st0"
   points="483.9,377 483.9,390.3 492.4,390.3 492.4,395 483.9,395 483.9,428.2 478.8,428.2 478.8,395 470.6,395 470.6,390.3 478.8,390.3 478.8,377 "
   id="polygon24"
   style="fill:#299938" />
	<polygon
   class="st1"
   points="132.5,330.3 135.1,341.4 151.6,410 163.8,358.4 166.6,346.8 169.4,358.4 181.7,408.9 196.1,347.7 198.1,339.1 201.5,347.3 211.6,371.3 215,364.2 215.8,362.5 217.6,362.5 495,365.4 495,365.4 219.4,368.3 211.2,385.3 199.6,357.6 184.5,421.8 181.7,433.5 178.9,421.9 166.7,371.3 154.4,423 151.6,434.6 148.8,423 132.2,353.7 125.6,378.8 123.7,386 120.3,379.4 114.7,368.8 102,365.9 116.4,363 118.2,363 119,364.6 121.9,370.2 129.6,341.3 "
   id="polygon26"
   style="fill:#d4d8dc;fill-opacity:1" />
</g>
</svg>